<svg width="112" height="117" viewBox="0 0 112 117" fill="none" xmlns="http://www.w3.org/2000/svg">
<circle cx="56" cy="61" r="56" fill="#959595" fill-opacity="0.13"/>
<path d="M87.7805 64.1621L87.8 64.1509L74.675 44.8175C74.4365 44.4647 74.0162 44.25 73.5624 44.25H39.4375C38.9837 44.25 38.5633 44.4648 38.3249 44.8175L25.2 64.1509L25.2195 64.1621C25.0927 64.3481 25 64.5555 25 64.7916V82.9166C25 85.5824 27.3559 87.75 30.25 87.75H82.7501C85.6441 87.75 88 85.5824 88 82.9166V64.7916C88 64.5555 87.9073 64.3481 87.7805 64.1621ZM40.1655 46.6666H72.8345L84.3197 63.5833H74.8751C71.9809 63.5833 69.625 65.7509 69.625 68.4166C69.625 69.7488 68.4483 70.8333 67.0001 70.8333H46C44.5517 70.8333 43.3751 69.7488 43.3751 68.4166C43.3751 65.751 41.0192 63.5833 38.125 63.5833H28.6803L40.1655 46.6666ZM85.375 82.9166C85.375 84.2488 84.1983 85.3333 82.7501 85.3333H30.25C28.8017 85.3333 27.6251 84.2488 27.6251 82.9166V66H38.125C39.5734 66 40.75 67.0844 40.75 68.4166C40.75 71.0824 43.1059 73.25 46 73.25H67.0001C69.8941 73.25 72.25 71.0824 72.25 68.4166C72.25 67.0844 73.4267 66 74.875 66H85.3749V82.9166H85.375Z" fill="#9D9D9D" fill-opacity="0.45"/>
<path d="M63.6815 15.6617L59.2243 13.3404L56.7865 9.09608C56.4976 8.593 55.7367 8.59278 55.4476 9.09608L53.0099 13.3404L48.5526 15.6617C48.0242 15.9368 48.024 16.6613 48.5526 16.9366L53.0099 19.2579L55.4476 23.5022C55.7367 24.0055 56.4976 24.0052 56.7865 23.5022L59.2243 19.2579L63.6815 16.9366C64.2101 16.6614 64.2097 15.9368 63.6815 15.6617ZM58.2959 18.0851C58.1678 18.1518 58.0626 18.252 57.9926 18.3739L56.117 21.6394L54.2415 18.3739C54.1714 18.252 54.0662 18.1518 53.9381 18.0851L50.5089 16.2992L53.9381 14.5132C54.0661 14.4466 54.1714 14.3463 54.2415 14.2244L56.117 10.9589L57.9927 14.2244C58.0626 14.3463 58.1679 14.4466 58.296 14.5132L61.7252 16.2992L58.2959 18.0851Z" fill="#9D9D9D" fill-opacity="0.32"/>
<path d="M44.5781 8.9709L45.9368 6.60535L48.4212 5.31156C48.9495 5.03641 48.9497 4.31195 48.4212 4.03665L45.9368 2.74293L44.5781 0.377387C44.2893 -0.125686 43.5284 -0.125904 43.2393 0.377387L41.8806 2.74293L39.3964 4.03665C38.868 4.3118 38.8678 5.03626 39.3964 5.31156L41.8806 6.60535L43.2393 8.9709C43.5283 9.47397 44.2891 9.47419 44.5781 8.9709ZM42.809 5.43253L41.3527 4.67414L42.809 3.91575C42.937 3.84913 43.0423 3.74886 43.1123 3.62694L43.9087 2.24015L44.7052 3.62687C44.7752 3.74879 44.8805 3.84906 45.0086 3.91568L46.4649 4.67414L45.0086 5.43253C44.8805 5.49916 44.7752 5.59942 44.7052 5.72134L43.9087 7.10806L43.1122 5.72134C43.0422 5.59949 42.937 5.49923 42.809 5.43253V5.43253Z" fill="#9D9D9D" fill-opacity="0.32"/>
<path d="M75.2276 10.5757L72.7433 9.282L71.3846 6.91645C71.0957 6.41338 70.3347 6.41316 70.0457 6.91645L68.687 9.282L66.2028 10.5758C65.6743 10.851 65.6742 11.5754 66.2028 11.8507L68.687 13.1445L70.0458 15.51C70.3347 16.0131 71.0956 16.0133 71.3846 15.51L72.7433 13.1445L75.2277 11.8507C75.7562 11.5754 75.7558 10.8509 75.2276 10.5757V10.5757ZM71.815 11.9716C71.6869 12.0382 71.5816 12.1385 71.5117 12.2604L70.7152 13.6471L69.9187 12.2604C69.8487 12.1385 69.7434 12.0382 69.6153 11.9716L68.159 11.2132L69.6153 10.4548C69.7434 10.3882 69.8487 10.2879 69.9187 10.166L70.7152 8.77929L71.5117 10.166C71.5816 10.2879 71.6869 10.3882 71.815 10.4548L73.2713 11.2132L71.815 11.9716Z" fill="#9D9D9D" fill-opacity="0.32"/>
<path d="M52.3369 28.7399L49.8526 27.4461L48.4939 25.0805C48.2049 24.5771 47.4439 24.5775 47.155 25.0805L45.7964 27.4461L43.3122 28.7399C42.7838 29.0151 42.7835 29.7396 43.3122 30.0148L45.7964 31.3086L47.1551 33.6742C47.4442 34.1776 48.2051 34.1772 48.494 33.6742L49.8527 31.3086L52.337 30.0148C52.8653 29.7396 52.8655 29.0151 52.3369 28.7399V28.7399ZM48.9243 30.1357C48.7963 30.2024 48.691 30.3026 48.621 30.4245L47.8245 31.8113L47.0281 30.4245C46.9581 30.3026 46.8528 30.2024 46.7248 30.1357L45.2685 29.3773L46.7248 28.619C46.8528 28.5523 46.9581 28.4521 47.0281 28.3301L47.8245 26.9434L48.621 28.3301C48.691 28.4521 48.7963 28.5523 48.9243 28.619L50.3806 29.3773L48.9243 30.1357Z" fill="#9D9D9D" fill-opacity="0.32"/>
<path d="M69.8865 29.5624L67.4022 28.2686L66.0435 25.903C65.7538 25.3985 64.9929 25.401 64.7046 25.903L63.346 28.2686L60.8617 29.5624C60.3333 29.8376 60.3331 30.5621 60.8617 30.8373L63.346 32.1311L64.7047 34.4967C64.9932 34.9991 65.7541 35.0007 66.0436 34.4967L67.4023 32.1311L69.8866 30.8373C70.1313 30.7099 70.2834 30.4654 70.2834 30.1999C70.2834 29.9343 70.1312 29.6898 69.8865 29.5624V29.5624ZM66.4739 30.9583C66.3459 31.025 66.2406 31.1252 66.1706 31.2471L65.3741 32.6338L64.5777 31.2471C64.5076 31.1252 64.4023 31.025 64.2743 30.9583L62.818 30.1999L64.2743 29.4415C64.4023 29.3748 64.5076 29.2746 64.5777 29.1527L65.3741 27.766L66.1706 29.1527C66.2406 29.2746 66.3459 29.3748 66.4739 29.4415L67.9302 30.1999L66.4739 30.9583Z" fill="#9D9D9D" fill-opacity="0.32"/>
</svg>
