<svg width="196" height="52" viewBox="0 0 196 52" fill="none" xmlns="http://www.w3.org/2000/svg">
<path d="M28.4375 11.9375H8.75C8.16984 11.9375 7.61344 12.1416 7.2032 12.505C6.79297 12.8683 6.5625 13.3611 6.5625 13.875V17.75H4.375V19.6875H6.5625V24.5312H4.375V26.4688H6.5625V31.3125H4.375V33.25H6.5625V37.125C6.5625 37.6389 6.79297 38.1317 7.2032 38.495C7.61344 38.8584 8.16984 39.0625 8.75 39.0625H28.4375C29.0177 39.0625 29.5741 38.8584 29.9843 38.495C30.3945 38.1317 30.625 37.6389 30.625 37.125V13.875C30.625 13.3611 30.3945 12.8683 29.9843 12.505C29.5741 12.1416 29.0177 11.9375 28.4375 11.9375ZM28.4375 37.125H8.75V33.25H10.9375V31.3125H8.75V26.4688H10.9375V24.5312H8.75V19.6875H10.9375V17.75H8.75V13.875H28.4375V37.125Z" fill="#0091BF"/>
<path d="M15.3125 17.75H24.0625V19.6875H15.3125V17.75ZM15.3125 24.5312H24.0625V26.4688H15.3125V24.5312ZM15.3125 31.3125H24.0625V33.25H15.3125V31.3125Z" fill="#0091BF"/>
<path d="M42.7513 26.9072H45.2806V27.1465C45.2806 28.2174 45.6451 29.0093 46.3743 29.522C47.1035 30.0233 48.089 30.2739 49.3309 30.2739C50.5727 30.2739 51.5411 30.0347 52.2361 29.5562C52.9425 29.0776 53.2957 28.4054 53.2957 27.5396C53.2957 26.7078 53.0052 26.0869 52.4241 25.6768C51.8431 25.2666 50.6354 24.828 48.8011 24.3608C47.0009 23.9165 45.611 23.3184 44.6312 22.5664C43.6627 21.8031 43.1785 20.7378 43.1785 19.3706C43.1785 17.992 43.7254 16.8698 44.8191 16.0039C45.9243 15.138 47.3997 14.7051 49.2454 14.7051C51.0911 14.7051 52.5779 15.1437 53.7059 16.021C54.8338 16.8983 55.3978 18.1287 55.3978 19.7124V19.9175H52.8685V19.6782C52.8685 18.7212 52.5608 18.0148 51.9456 17.5591C51.3418 17.1034 50.4417 16.8755 49.2454 16.8755C48.0605 16.8755 47.1718 17.0863 46.5794 17.5078C45.9983 17.9294 45.7078 18.4933 45.7078 19.1997C45.7078 19.9403 46.0211 20.5156 46.6478 20.9258C47.2744 21.3359 48.465 21.7632 50.2195 22.2075C52.0538 22.6746 53.4438 23.2899 54.3895 24.0532C55.3465 24.8166 55.825 25.9217 55.825 27.3687C55.825 28.8612 55.2838 30.0802 54.2015 31.0259C53.1191 31.9601 51.4956 32.4272 49.3309 32.4272C47.1775 32.4272 45.5426 31.9601 44.4261 31.0259C43.3095 30.0802 42.7513 28.7871 42.7513 27.1465V26.9072ZM58.4322 32V15.1323H60.7735L60.8419 17.4565H60.9103C61.5141 16.6248 62.2433 15.9754 63.0978 15.5083C63.9636 15.0298 64.9378 14.7905 66.0201 14.7905C67.1594 14.7905 68.1393 15.0298 68.9596 15.5083C69.7799 15.9754 70.378 16.716 70.754 17.73H70.8053C71.4547 16.7274 72.2294 15.9868 73.1295 15.5083C74.041 15.0298 75.0777 14.7905 76.2398 14.7905C77.8805 14.7905 79.1793 15.269 80.1363 16.2261C81.1048 17.1717 81.589 18.7554 81.589 20.9771V32H79.0426V20.9429C79.0426 19.4845 78.735 18.4648 78.1197 17.8838C77.5159 17.2913 76.6614 16.9951 75.5562 16.9951C74.5878 16.9951 73.7447 17.2743 73.027 17.8325C72.3092 18.3908 71.7281 19.1086 71.2838 19.9858V32H68.7374V20.9429C68.7374 19.4959 68.4298 18.4762 67.8146 17.8838C67.2107 17.2913 66.3562 16.9951 65.2511 16.9951C64.2826 16.9951 63.4396 17.2743 62.7218 17.8325C62.004 18.3908 61.4229 19.1086 60.9786 19.9858V32H58.4322ZM83.974 27.1123C83.974 25.4375 84.6291 24.1216 85.9394 23.1646C87.261 22.1961 88.9756 21.7119 91.0834 21.7119H94.997V20.2935C94.997 19.2111 94.7121 18.3623 94.1425 17.7471C93.5842 17.1318 92.6443 16.8242 91.3227 16.8242C90.0124 16.8242 89.044 17.0863 88.4174 17.6104C87.7908 18.1344 87.4774 18.8066 87.4774 19.627V19.8491H84.9311V19.5073C84.9311 18.1971 85.5064 17.0692 86.6571 16.1235C87.8192 15.1779 89.3915 14.7051 91.3739 14.7051C93.3222 14.7051 94.8375 15.1551 95.9198 16.0552C97.0022 16.9552 97.5434 18.368 97.5434 20.2935V27.8984C97.5434 28.639 97.5946 29.3397 97.6972 30.0005C97.8111 30.6499 97.9706 31.2253 98.1757 31.7266V32H95.7489C95.5894 31.7152 95.447 31.3449 95.3217 30.8892C95.1964 30.4334 95.1109 29.972 95.0653 29.5049C94.6666 30.234 94.0115 30.8835 93.1 31.4531C92.1885 32.0114 91.0207 32.2905 89.5966 32.2905C87.956 32.2905 86.6059 31.8462 85.5463 30.9575C84.4981 30.0688 83.974 28.7871 83.974 27.1123ZM86.5204 27.0098C86.5204 28.0238 86.8166 28.8042 87.4091 29.3511C88.0129 29.8866 88.913 30.1543 90.1093 30.1543C91.3511 30.1543 92.4734 29.7327 93.476 28.8896C94.49 28.0465 94.997 27.1237 94.997 26.1211V23.6431H91.4081C89.7675 23.6431 88.5427 23.945 87.7338 24.5488C86.9249 25.1527 86.5204 25.973 86.5204 27.0098ZM101.005 32V15.1323H103.346L103.415 17.3882H103.483C103.939 16.6362 104.531 16.0039 105.26 15.4912C105.99 14.9671 106.873 14.7051 107.909 14.7051C108.137 14.7051 108.388 14.7279 108.661 14.7734C108.935 14.819 109.128 14.8646 109.242 14.9102V17.2686C109.026 17.223 108.787 17.1888 108.525 17.166C108.274 17.1318 108.001 17.1147 107.704 17.1147C106.77 17.1147 105.938 17.3882 105.209 17.9351C104.491 18.4705 103.939 19.1541 103.551 19.9858V32H101.005ZM109.167 17.2002V15.1323H118.6V17.2002H109.167ZM112.191 27.625V16.2432V15.8843V9.90283H114.738V27.625C114.738 28.639 114.903 29.3226 115.233 29.6758C115.564 30.0176 116.082 30.1885 116.789 30.1885C117.085 30.1885 117.37 30.16 117.643 30.103C117.928 30.0461 118.207 29.9606 118.48 29.8467V32.0171C118.23 32.131 117.905 32.2279 117.506 32.3076C117.108 32.3874 116.669 32.4272 116.19 32.4272C114.96 32.4272 113.986 32.0627 113.268 31.3335C112.55 30.6043 112.191 29.3682 112.191 27.625ZM124.464 17.2002V15.1323H133.898V17.2002H124.464ZM127.489 27.625V16.2432V15.8843V9.90283H130.035V27.625C130.035 28.639 130.2 29.3226 130.531 29.6758C130.861 30.0176 131.38 30.1885 132.086 30.1885C132.382 30.1885 132.667 30.16 132.941 30.103C133.225 30.0461 133.504 29.9606 133.778 29.8467V32.0171C133.527 32.131 133.203 32.2279 132.804 32.3076C132.405 32.3874 131.966 32.4272 131.488 32.4272C130.257 32.4272 129.283 32.0627 128.566 31.3335C127.848 30.6043 127.489 29.3682 127.489 27.625ZM134.351 23.8311V23.2842C134.351 20.7321 135.058 18.6642 136.471 17.0806C137.883 15.4969 139.769 14.7051 142.127 14.7051C144.486 14.7051 146.371 15.4969 147.784 17.0806C149.197 18.6642 149.903 20.7321 149.903 23.2842V23.8311C149.903 26.3831 149.197 28.4567 147.784 30.0518C146.371 31.6354 144.486 32.4272 142.127 32.4272C139.769 32.4272 137.883 31.6354 136.471 30.0518C135.058 28.4567 134.351 26.3831 134.351 23.8311ZM136.966 23.2842V23.8311C136.966 25.6768 137.399 27.2148 138.265 28.4453C139.142 29.6644 140.43 30.2739 142.127 30.2739C143.825 30.2739 145.107 29.6644 145.973 28.4453C146.85 27.2148 147.288 25.6711 147.288 23.814V23.2842C147.288 21.4385 146.85 19.9118 145.973 18.7041C145.107 17.485 143.825 16.8755 142.127 16.8755C140.43 16.8755 139.142 17.485 138.265 18.7041C137.399 19.9118 136.966 21.4385 136.966 23.2842ZM151.314 22.3101V20.0029H160.252V22.3101H151.314ZM161.646 23.8311V23.2842C161.646 20.8232 162.278 18.7952 163.543 17.2002C164.808 15.5938 166.5 14.7905 168.619 14.7905C169.826 14.7905 170.857 15.0013 171.712 15.4229C172.566 15.8444 173.239 16.397 173.729 17.0806V6.38232H176.275V32H173.934L173.848 29.6929H173.78C173.324 30.422 172.652 31.0487 171.763 31.5728C170.875 32.0854 169.826 32.3418 168.619 32.3418C166.477 32.3418 164.779 31.5386 163.526 29.9321C162.273 28.3257 161.646 26.292 161.646 23.8311ZM164.261 23.8311C164.261 25.654 164.654 27.1693 165.44 28.377C166.226 29.5732 167.462 30.1714 169.148 30.1714C170.276 30.1714 171.233 29.8638 172.02 29.2485C172.806 28.6333 173.375 27.9269 173.729 27.1294V19.8833C173.387 19.0972 172.817 18.4136 172.02 17.8325C171.233 17.2515 170.276 16.9609 169.148 16.9609C167.462 16.9609 166.226 17.5591 165.44 18.7554C164.654 19.9517 164.261 21.4613 164.261 23.2842V23.8311ZM178.745 23.8311V23.2842C178.745 20.7321 179.452 18.6642 180.865 17.0806C182.277 15.4969 184.163 14.7051 186.521 14.7051C188.88 14.7051 190.765 15.4969 192.178 17.0806C193.591 18.6642 194.297 20.7321 194.297 23.2842V23.8311C194.297 26.3831 193.591 28.4567 192.178 30.0518C190.765 31.6354 188.88 32.4272 186.521 32.4272C184.163 32.4272 182.277 31.6354 180.865 30.0518C179.452 28.4567 178.745 26.3831 178.745 23.8311ZM181.36 23.2842V23.8311C181.36 25.6768 181.793 27.2148 182.659 28.4453C183.536 29.6644 184.824 30.2739 186.521 30.2739C188.219 30.2739 189.501 29.6644 190.367 28.4453C191.244 27.2148 191.682 25.6711 191.682 23.814V23.2842C191.682 21.4385 191.244 19.9118 190.367 18.7041C189.501 17.485 188.219 16.8755 186.521 16.8755C184.824 16.8755 183.536 17.485 182.659 18.7041C181.793 19.9118 181.36 21.4385 181.36 23.2842Z" fill="white"/>
<path d="M45.0117 49V38.5H46.2832V42.6562C46.4928 42.36 46.7731 42.123 47.124 41.9453C47.4795 41.763 47.9079 41.6719 48.4092 41.6719C49.3206 41.6719 50.0498 42.0137 50.5967 42.6973C51.1436 43.3809 51.417 44.2467 51.417 45.2949V45.5137C51.417 46.5618 51.1436 47.4277 50.5967 48.1113C50.0498 48.7949 49.3206 49.1367 48.4092 49.1367C47.9079 49.1367 47.4681 49.0319 47.0898 48.8223C46.7161 48.6126 46.4382 48.3597 46.2559 48.0635H46.2148L46.1602 49H45.0117ZM46.2832 46.8672C46.4245 47.1862 46.6546 47.471 46.9736 47.7217C47.2926 47.9723 47.68 48.0977 48.1357 48.0977C48.8193 48.0977 49.3206 47.8493 49.6396 47.3525C49.9587 46.8558 50.1182 46.2428 50.1182 45.5137V45.2949C50.1182 44.5658 49.9587 43.9528 49.6396 43.4561C49.3206 42.9593 48.8193 42.7109 48.1357 42.7109C47.68 42.7109 47.2926 42.8363 46.9736 43.0869C46.6546 43.3376 46.4245 43.6224 46.2832 43.9414V46.8672ZM51.8378 51.8438V50.7637C51.9563 50.8001 52.0885 50.8298 52.2343 50.8525C52.3801 50.8753 52.5214 50.8867 52.6581 50.8867C52.9771 50.8867 53.2551 50.766 53.4921 50.5244C53.7291 50.2874 53.9797 49.7702 54.2441 48.9727V48.9658L51.5644 41.8086H52.7948L54.497 46.5391C54.5608 46.7214 54.6178 46.8923 54.6679 47.0518C54.718 47.2113 54.7613 47.3594 54.7978 47.4961H54.8388C54.8798 47.3594 54.9254 47.2113 54.9755 47.0518C55.0302 46.8923 55.0872 46.7214 55.1464 46.5391L56.7323 41.8086H57.9355L55.0165 49.957C54.7887 50.5951 54.4856 51.0918 54.1073 51.4473C53.7336 51.8027 53.2734 51.9805 52.7265 51.9805C52.5442 51.9805 52.3824 51.9691 52.2411 51.9463C52.0999 51.9235 51.9654 51.8893 51.8378 51.8438ZM64.1266 46.2793V46.1973H65.4391V46.2793C65.4391 46.8809 65.6419 47.332 66.0475 47.6328C66.4531 47.9336 67.0205 48.084 67.7497 48.084C68.4789 48.084 69.0371 47.929 69.4245 47.6191C69.8119 47.3092 70.0055 46.9036 70.0055 46.4023C70.0055 45.9466 69.8164 45.582 69.4382 45.3086C69.0645 45.0352 68.3558 44.748 67.3122 44.4473C66.2276 44.1328 65.4596 43.766 65.0085 43.3467C64.5573 42.9229 64.3317 42.3236 64.3317 41.5488C64.3317 40.7741 64.6279 40.1292 65.2204 39.6143C65.8128 39.0993 66.6332 38.8418 67.6813 38.8418C68.7295 38.8418 69.5635 39.113 70.1833 39.6553C70.8031 40.1976 71.113 40.888 71.113 41.7266V41.8086H69.8005V41.7266C69.8005 41.1979 69.6227 40.7718 69.2673 40.4482C68.9118 40.1247 68.3832 39.9629 67.6813 39.9629C66.9795 39.9629 66.4623 40.1019 66.1296 40.3799C65.7969 40.6579 65.6305 41.0361 65.6305 41.5146C65.6305 41.9476 65.8014 42.2894 66.1432 42.54C66.485 42.7907 67.1891 43.0664 68.2555 43.3672C69.322 43.668 70.0967 44.0439 70.5798 44.4951C71.0628 44.9463 71.3044 45.582 71.3044 46.4023C71.3044 47.2227 70.9854 47.8949 70.3473 48.4189C69.7093 48.943 68.8434 49.2051 67.7497 49.2051C66.6559 49.2051 65.7787 48.943 65.1179 48.4189C64.457 47.8949 64.1266 47.1816 64.1266 46.2793ZM72.0123 45.5137V45.2949C72.0123 44.2103 72.3199 43.3239 72.9352 42.6357C73.5504 41.9476 74.373 41.6035 75.4029 41.6035C76.4329 41.6035 77.2555 41.9476 77.8707 42.6357C78.4859 43.3239 78.7936 44.2103 78.7936 45.2949V45.5137C78.7936 46.5983 78.4859 47.4847 77.8707 48.1729C77.2555 48.861 76.4329 49.2051 75.4029 49.2051C74.373 49.2051 73.5504 48.861 72.9352 48.1729C72.3199 47.4847 72.0123 46.5983 72.0123 45.5137ZM73.3111 45.2949V45.5137C73.3111 46.2565 73.4866 46.8854 73.8375 47.4004C74.1884 47.9108 74.7102 48.166 75.4029 48.166C76.0956 48.166 76.6174 47.9108 76.9684 47.4004C77.3193 46.8854 77.4947 46.2565 77.4947 45.5137V45.2949C77.4947 44.5521 77.3193 43.9255 76.9684 43.415C76.6174 42.9001 76.0956 42.6426 75.4029 42.6426C74.7102 42.6426 74.1884 42.9001 73.8375 43.415C73.4866 43.9255 73.3111 44.5521 73.3111 45.2949ZM80.2945 49V40.7969C80.2945 40.0039 80.5109 39.4001 80.9439 38.9854C81.3768 38.5706 81.967 38.3633 82.7144 38.3633C82.8602 38.3633 83.0083 38.3724 83.1587 38.3906C83.3091 38.4089 83.4527 38.4362 83.5894 38.4727L83.521 39.498C83.4208 39.4798 83.3137 39.4639 83.1997 39.4502C83.0858 39.4365 82.9696 39.4297 82.8511 39.4297C82.4409 39.4297 82.1242 39.5436 81.9009 39.7715C81.6776 39.9993 81.5659 40.3411 81.5659 40.7969V42.2188V42.3691V49H80.2945ZM79.1255 42.7793V41.8086H80.773H81.0874H83.1245V42.7793H79.1255ZM83.0873 42.7793V41.8086H87.1889V42.7793H83.0873ZM84.3725 47.2227V42.3965V42.1914V40.0312H85.644V47.2227C85.644 47.5417 85.7078 47.7695 85.8354 47.9062C85.963 48.043 86.1635 48.1113 86.437 48.1113C86.5646 48.1113 86.6899 48.0977 86.8129 48.0703C86.936 48.043 87.0613 48.0065 87.1889 47.9609V49C87.0704 49.0547 86.9155 49.1025 86.7241 49.1436C86.5327 49.1846 86.323 49.2051 86.0952 49.2051C85.5711 49.2051 85.1518 49.0456 84.8373 48.7266C84.5274 48.4076 84.3725 47.9062 84.3725 47.2227ZM87.2748 40.127V39.0469H94.9857V40.127H91.7865V49H90.474V40.127H87.2748ZM94.7161 49V41.8086H95.8645L95.9192 42.7314H95.9602C96.1425 42.4307 96.3818 42.1686 96.678 41.9453C96.9742 41.7174 97.3274 41.6035 97.7376 41.6035C97.8378 41.6035 97.9427 41.6149 98.052 41.6377C98.1614 41.6605 98.2389 41.681 98.2845 41.6992V42.875C98.1933 42.8568 98.0976 42.8431 97.9973 42.834C97.8971 42.8249 97.7877 42.8203 97.6692 42.8203C97.2591 42.8203 96.9104 42.9274 96.6233 43.1416C96.3362 43.3558 96.1243 43.6224 95.9876 43.9414V49H94.7161ZM98.4113 46.8809C98.4113 46.1517 98.7007 45.5843 99.2795 45.1787C99.8583 44.7731 100.594 44.5703 101.487 44.5703H103.114V44.0781C103.114 43.6452 103.003 43.2943 102.779 43.0254C102.556 42.752 102.171 42.6152 101.624 42.6152C101.077 42.6152 100.685 42.7292 100.448 42.957C100.216 43.1803 100.1 43.4401 100.1 43.7363V43.7705H98.8352V43.7363C98.8352 43.1667 99.0881 42.6699 99.5939 42.2461C100.104 41.8177 100.793 41.6035 101.658 41.6035C102.524 41.6035 103.194 41.8109 103.668 42.2256C104.147 42.6403 104.386 43.2578 104.386 44.0781V47.3594C104.386 47.6556 104.409 47.9359 104.454 48.2002C104.5 48.46 104.564 48.6901 104.646 48.8906V49H103.415C103.351 48.8861 103.292 48.738 103.237 48.5557C103.187 48.3734 103.155 48.1911 103.142 48.0088C102.973 48.305 102.7 48.5671 102.321 48.7949C101.948 49.0228 101.465 49.1367 100.872 49.1367C100.189 49.1367 99.6076 48.943 99.1291 48.5557C98.6506 48.1683 98.4113 47.61 98.4113 46.8809ZM99.6828 46.8125C99.6828 47.2227 99.8013 47.5439 100.038 47.7764C100.275 48.0088 100.644 48.125 101.146 48.125C101.647 48.125 102.1 47.9518 102.506 47.6055C102.912 47.2591 103.114 46.8923 103.114 46.5049V45.4727H101.624C100.986 45.4727 100.503 45.5934 100.175 45.835C99.8469 46.0765 99.6828 46.4023 99.6828 46.8125ZM105.518 45.5137V45.2949C105.518 44.2103 105.812 43.3239 106.4 42.6357C106.992 41.9476 107.805 41.6035 108.84 41.6035C109.797 41.6035 110.524 41.8633 111.021 42.3828C111.517 42.8978 111.766 43.4743 111.766 44.1123V44.1465H110.535V44.1123C110.535 43.7249 110.401 43.3831 110.132 43.0869C109.863 42.7907 109.432 42.6426 108.84 42.6426C108.147 42.6426 107.637 42.9001 107.309 43.415C106.981 43.9255 106.817 44.5521 106.817 45.2949V45.5137C106.817 46.2565 106.981 46.8854 107.309 47.4004C107.637 47.9108 108.147 48.166 108.84 48.166C109.432 48.166 109.863 48.0179 110.132 47.7217C110.401 47.4255 110.535 47.0837 110.535 46.6963V46.6621H111.766V46.6963C111.766 47.3343 111.517 47.9131 111.021 48.4326C110.524 48.9476 109.797 49.2051 108.84 49.2051C107.805 49.2051 106.992 48.861 106.4 48.1729C105.812 47.4847 105.518 46.5983 105.518 45.5137ZM112.829 49V38.5H114.101V45.1172L117.177 41.8086H118.619L114.101 46.6074V49H112.829ZM117.464 49L114.661 45.2812L115.454 44.4062L118.954 49H117.464ZM118.869 45.5137V45.2949C118.869 44.2103 119.165 43.3239 119.758 42.6357C120.355 41.9476 121.143 41.6035 122.123 41.6035C123.103 41.6035 123.857 41.9248 124.386 42.5674C124.914 43.21 125.179 44.0781 125.179 45.1719V45.6914H119.648V44.6797H123.9V44.5156C123.9 43.9961 123.752 43.554 123.456 43.1895C123.16 42.8249 122.734 42.6426 122.178 42.6426C121.503 42.6426 121 42.9001 120.667 43.415C120.334 43.9255 120.168 44.5521 120.168 45.2949V45.5137C120.168 46.2565 120.343 46.8854 120.694 47.4004C121.045 47.9108 121.59 48.166 122.328 48.166C122.784 48.166 123.176 48.0658 123.504 47.8652C123.832 47.6647 124.099 47.4277 124.304 47.1543L125.124 47.8037C124.896 48.1455 124.543 48.4645 124.064 48.7607C123.59 49.057 123.012 49.2051 122.328 49.2051C121.212 49.2051 120.355 48.861 119.758 48.1729C119.165 47.4847 118.869 46.5983 118.869 45.5137ZM126.317 49V41.8086H127.466L127.52 42.7314H127.561C127.744 42.4307 127.983 42.1686 128.279 41.9453C128.575 41.7174 128.929 41.6035 129.339 41.6035C129.439 41.6035 129.544 41.6149 129.653 41.6377C129.763 41.6605 129.84 41.681 129.886 41.6992V42.875C129.794 42.8568 129.699 42.8431 129.599 42.834C129.498 42.8249 129.389 42.8203 129.27 42.8203C128.86 42.8203 128.512 42.9274 128.224 43.1416C127.937 43.3558 127.725 43.6224 127.589 43.9414V49H126.317Z" fill="white"/>
</svg>
